<svg xmlns="http://www.w3.org/2000/svg" width="199" height="299" viewBox="0 0 199 299">
  <defs>
    <style>
      .cls-1 {
        fill: #fff;
        fill-rule: evenodd;
      }
    </style>
  </defs>
  <path id="I1.svg" class="cls-1" d="M741.594,864.344V894.25H770.25a12.462,12.462,0,0,1,12.437,12.458V925.4a12.462,12.462,0,0,1,12.438,12.458V969H625.875V937.854A12.462,12.462,0,0,1,638.313,925.4V906.708A12.462,12.462,0,0,1,650.75,894.25h28.656V864.344A99.827,99.827,0,0,1,611,769.667C611,714.711,655.636,670,710.5,670S810,714.711,810,769.667A99.827,99.827,0,0,1,741.594,864.344ZM650.75,906.708V925.4H710.5v12.458H638.313v18.688H782.687V937.854h-59.75V925.4H770.25V906.708H722.937V894.25h6.219V867.569a99.535,99.535,0,0,1-37.312,0V894.25H710.5v12.458H650.75Zm59.75-224.25a87.209,87.209,0,1,0,87.062,87.209A87.233,87.233,0,0,0,710.5,682.458Zm53.946,79.866-24.917,22.827,7.8,32.433a6.221,6.221,0,0,1-9.341,6.743L710.6,807.194l-27.395,17.133a6.222,6.222,0,0,1-9.34-6.743l7.8-32.433-24.918-22.827a6.229,6.229,0,0,1,3.869-10.815l31.986-1.677,12.177-32.2a6.217,6.217,0,0,1,11.635,0l12.171,32.2,31.986,1.677A6.229,6.229,0,0,1,764.446,762.324Zm-40.561-.264a6.22,6.22,0,0,1-5.49-4.015L710.6,737.423l-7.8,20.622a6.221,6.221,0,0,1-5.49,4.015l-21.208,1.113,16.665,15.269a6.245,6.245,0,0,1,1.852,6.056l-5.1,21.19,17.788-11.123a6.209,6.209,0,0,1,6.583,0l17.782,11.123-5.1-21.19a6.247,6.247,0,0,1,1.852-6.056l16.665-15.269Z" transform="translate(-611 -670)"/>
</svg>

