<svg xmlns="http://www.w3.org/2000/svg" width="350" height="299" viewBox="0 0 350 299">
  <defs>
    <style>
      .cls-1 {
        fill: #fff;
        fill-rule: evenodd;
      }
    </style>
  </defs>
  <path id="I2.svg" class="cls-1" d="M1214,896.088c0,28.419-56.35,43.756-109.38,43.756a282.53,282.53,0,0,1-31.94-1.77,7.293,7.293,0,0,1,1.65-14.493,267.715,267.715,0,0,0,30.29,1.677c57.87,0,94.8-17.277,94.8-29.17V888.8a8.752,8.752,0,0,0-2.08-5.15c-20.64,12.933-57.41,19.735-92.72,19.735-4.32,0-8.59-.092-12.78-0.274a7.293,7.293,0,0,1,.64-14.571c3.98,0.174,8.04.26,12.14,0.26,57.87,0,94.8-17.278,94.8-29.171v-7.292a8.75,8.75,0,0,0-2.08-5.15c-20.64,12.933-57.41,19.735-92.72,19.735-2.71,0-5.42-.036-8.09-0.111a7.3,7.3,0,0,1-7.09-7.488,7.175,7.175,0,0,1,7.49-7.09q3.81,0.1,7.69.1c57.87,0,94.8-17.278,94.8-29.171v-7.293a8.752,8.752,0,0,0-2.08-5.15c-20.64,12.934-57.41,19.736-92.72,19.736-4.75,0-9.44-.115-14.02-0.332a7.294,7.294,0,0,1-6.94-7.634,7.431,7.431,0,0,1,7.64-6.937c4.35,0.21,8.81.317,13.32,0.317,57.87,0,94.8-17.278,94.8-29.171v-7.292a8.792,8.792,0,0,0-2.09-5.16c-20.64,12.931-57.41,19.731-92.71,19.731a281.6,281.6,0,0,1-33.34-1.937,7.292,7.292,0,0,1,1.74-14.479,267.331,267.331,0,0,0,31.6,1.83c57.87,0,94.8-17.277,94.8-29.17v-13.8c-20.18,13.813-58.28,21.088-94.8,21.088-36.54,0-74.66-7.285-94.83-21.116a7.29,7.29,0,0,1-14.54-.762V713.756c0-28.42,56.35-43.756,109.37-43.756S1214,685.336,1214,713.756V750.22a22.834,22.834,0,0,1-5.54,14.578c4.45,5.568,5.54,10.808,5.54,14.607V786.7a22.864,22.864,0,0,1-5.53,14.572c4.44,5.565,5.53,10.8,5.53,14.6v7.293a22.861,22.861,0,0,1-5.53,14.571c4.44,5.565,5.53,10.8,5.53,14.6v7.292a22.864,22.864,0,0,1-5.53,14.572c4.44,5.564,5.53,10.8,5.53,14.6v7.293Zm-109.38-211.5c-57.86,0-94.79,17.277-94.79,29.171s36.93,29.171,94.79,29.171,94.8-17.277,94.8-29.171S1162.49,684.585,1104.62,684.585ZM1082.75,859.61A109.375,109.375,0,1,1,973.375,750.22,109.5,109.5,0,0,1,1082.75,859.61ZM973.375,764.805a94.805,94.805,0,1,0,94.8,94.805A94.905,94.905,0,0,0,973.375,764.805ZM993.6,869.6H958.044v10.5H993.6v14.238H958.044v24.383H943.822V894.339H929.6V880.1h14.222V869.6H929.6V855.362h14.222v-52.28H993.6a28.491,28.491,0,0,1,28.44,28.476v9.566A28.491,28.491,0,0,1,993.6,869.6Zm14.22-38.042A14.246,14.246,0,0,0,993.6,817.32H958.044v38.042H993.6a14.246,14.246,0,0,0,14.22-14.238v-9.566Z" transform="translate(-864 -670)"/>
</svg>

