<svg xmlns="http://www.w3.org/2000/svg" width="257.032" height="223.875" viewBox="0 0 257.032 223.875">
  <defs>
    <style>
      .cls-1 {
        fill: #fff;
        fill-rule: evenodd;
      }
    </style>
  </defs>
  <path id="Warehouse.svg" class="cls-1" d="M1081.75,768.018l-7.79-5.4v131.3h-10.9V755.062l-103.6-71.792L855.872,755.062V893.92h-10.9v-131.3l-7.789,5.4-6.23-8.917,128.516-89.066L1087.98,759.1Zm-35.05,125.9h-10.91V779.854H883.133V893.92H872.228V768.991H1046.7V893.92ZM926.75,796.149h65.427V839.6h27.263V893.92H899.489V839.6H926.75V796.149Zm38.166,86.907h43.614v-32.59H964.916v32.59Zm0-43.453h16.357v-32.59H937.655V839.6h27.261Zm-54.522,10.863v32.59h43.617v-32.59H910.394Z" transform="translate(-830.938 -670.031)"/>
</svg>

